<?xml version="1.0" encoding="utf-8"?>
<!-- Generator: Adobe Illustrator 22.0.1, SVG Export Plug-In . SVG Version: 6.00 Build 0)  -->
<svg version="1.1" id="Слой_1" xmlns="http://www.w3.org/2000/svg" xmlns:xlink="http://www.w3.org/1999/xlink" x="0px" y="0px"
	 viewBox="0 0 39.2 49.7" style="enable-background:new 0 0 39.2 49.7;" xml:space="preserve">
<style type="text/css">
	.st0{fill:#2E368F;}
</style>
<path class="st0" d="M19.7,0.2h-0.2L-0.2,2.3v36.2l19.7,11.7l19.7-11.7V2.3C39.2,2.3,19.7,0.2,19.7,0.2z M36.7,37L19.5,47.2L2.3,37
	V22.2l17.1,10.2v1.8l-11.7-7V29l11.8,7.1V38L7.7,31v1.8l11.8,7l11.9-7.1v-7.6l5.3-3.2V37z M36.6,20l-4.7,2.8l-2.2,1.3L19.4,18v1.8
	l8.8,5.3h-0.1l-0.2,0.1l-1.3,0.7l-7.3-4.3v1.8l5.8,3.4l-1.4,0.9l-4.3-2.6v1.8l2.9,1.7l-2.9,1.7l-17-10.1l17-10.2
	C19.4,10,36.6,20,36.6,20z M36.7,18.2L19.4,8L2.3,18.2V4.6l17.2-1.8l17.2,1.8C36.7,4.6,36.7,18.2,36.7,18.2z"/>
</svg>
